<?xml version="1.0" encoding="UTF-8"?>
<svg xmlns="http://www.w3.org/2000/svg" xmlns:xlink="http://www.w3.org/1999/xlink" width="30px" height="30px" viewBox="0 0 16 16" version="1.1" fill="#e7e7e7">
<g id="surface1">
<path style=" stroke:none;fill-rule:nonzero;fill:#e7e7e7;fill-opacity:1;" d="M 8.355469 0.0117188 C 9.226562 0 10.09375 0.0078125 10.960938 0 C 11.011719 1.019531 11.378906 2.058594 12.128906 2.78125 C 12.871094 3.519531 13.925781 3.859375 14.953125 3.972656 L 14.953125 6.660156 C 13.992188 6.628906 13.027344 6.425781 12.152344 6.011719 C 11.773438 5.839844 11.417969 5.621094 11.074219 5.394531 C 11.066406 7.339844 11.082031 9.285156 11.058594 11.226562 C 11.007812 12.160156 10.699219 13.085938 10.160156 13.855469 C 9.285156 15.132812 7.773438 15.964844 6.21875 15.992188 C 5.265625 16.046875 4.3125 15.785156 3.5 15.308594 C 2.152344 14.511719 1.207031 13.058594 1.066406 11.5 C 1.050781 11.167969 1.046875 10.832031 1.058594 10.507812 C 1.179688 9.238281 1.808594 8.027344 2.78125 7.199219 C 3.886719 6.238281 5.433594 5.78125 6.878906 6.050781 C 6.894531 7.039062 6.855469 8.027344 6.855469 9.011719 C 6.191406 8.800781 5.417969 8.859375 4.839844 9.261719 C 4.417969 9.535156 4.097656 9.953125 3.933594 10.425781 C 3.792969 10.765625 3.832031 11.140625 3.839844 11.5 C 4 12.59375 5.050781 13.511719 6.175781 13.414062 C 6.917969 13.40625 7.632812 12.972656 8.019531 12.339844 C 8.148438 12.121094 8.285156 11.894531 8.292969 11.632812 C 8.359375 10.441406 8.335938 9.253906 8.34375 8.058594 C 8.347656 5.371094 8.335938 2.691406 8.355469 0.015625 Z M 8.355469 0.0117188 "/>
</g>
</svg>
